<?xml version="1.0" encoding="UTF-8" standalone="no"?>
<svg
   xmlns:dc="http://purl.org/dc/elements/1.1/"
   xmlns:cc="http://creativecommons.org/ns#"
   xmlns:rdf="http://www.w3.org/1999/02/22-rdf-syntax-ns#"
   xmlns:svg="http://www.w3.org/2000/svg"
   xmlns="http://www.w3.org/2000/svg"
   version="1.1"
   id="svg2"
   viewBox="0 0 201.43686 201.43686"
   height="56.84996mm"
   width="56.84996mm">
  <defs
     id="defs4" />
  <metadata
     id="metadata7">
    <rdf:RDF>
      <cc:Work
         rdf:about="">
        <dc:format>image/svg+xml</dc:format>
        <dc:type
           rdf:resource="http://purl.org/dc/dcmitype/StillImage" />
        <dc:title></dc:title>
      </cc:Work>
    </rdf:RDF>
  </metadata>
  <g
     transform="translate(-275.36975,-308.83525)"
     style="display:inline"
     id="layer3" />
  <g
     transform="translate(-275.36975,-308.83525)"
     style="display:inline"
     id="layer1">
    <g
       transform="translate(5.865046e-5,-41.910004)"
       id="text3336"
       style="font-style:normal;font-weight:normal;font-size:40px;line-height:125%;font-family:sans-serif;letter-spacing:100px;word-spacing:0px;fill:#ffffff;fill-opacity:1;stroke:none;stroke-width:1px;stroke-linecap:butt;stroke-linejoin:miter;stroke-opacity:1;image-rendering:auto">
      <path
         id="path4661"
         style="font-style:normal;font-variant:normal;font-weight:normal;font-stretch:normal;font-size:180px;font-family:SG04;-inkscape-font-specification:SG04;letter-spacing:0px;fill:#ffffff;fill-opacity:1"
         d="m 320.18969,484.94368 0,-22.32 -22.5,0 0,22.32 22.5,0 z m -44.82,-44.64 67.14,0 0,44.64 -22.32,0 0,22.5 -44.82,0 0,-67.14 z" />
      <path
         id="path4663"
         style="font-style:normal;font-variant:normal;font-weight:normal;font-stretch:normal;font-size:180px;font-family:SG04;-inkscape-font-specification:SG04;letter-spacing:0px;fill:#ffffff;fill-opacity:1"
         d="m 387.33813,507.44368 -22.32,0 0,-111.96 22.32,0 0,111.96 z" />
      <path
         id="path4665"
         style="font-style:normal;font-variant:normal;font-weight:normal;font-stretch:normal;font-size:180px;font-family:SG04;-inkscape-font-specification:SG04;letter-spacing:0px;fill:#ffffff;fill-opacity:1"
         d="m 476.80656,417.98368 -22.32,0 0,22.32 22.32,0 0,22.32 -22.32,0 0,44.82 -22.5,0 0,-44.82 -22.32,0 0,-22.32 22.32,0 0,-44.82 44.82,0 0,22.5 z" />
    </g>
  </g>
  <g
     transform="translate(-275.36975,-308.83525)"
     style="display:inline"
     id="layer4" />
</svg>
